                                                                        S0000001
,,31HOpen CASCADE IGES processor 6.3,13HFilename.iges,                  G0000001
16HOpen CASCADE 6.3,31HOpen CASCADE IGES processor 6.3,32,308,15,308,15,G0000002
,1.,6,1HM,1,0.01,15H20130318.111114,0.0849696,6.049453,5Hamola,,11,0,   G0000003
15H20130318.111114,;                                                    G0000004
     510       1       0       0       0       0       0       000010000D0000001
     510       0       0       1       1                               0D0000002
     128       2       0       0       0       0       0       000010000D0000003
     128       0       0     115       0                               0D0000004
     508     117       0       0       0       0       0       000010000D0000005
     508       0       0       4       1                               0D0000006
     504     121       0       0       0       0       0       000010001D0000007
     504       0       0       3       1                               0D0000008
     126     124       0       0       0       0       0       000010000D0000009
     126       0       0       6       0                               0D0000010
     502     130       0       0       0       0       0       000010000D0000011
     502       0       0       8       1                               0D0000012
     126     138       0       0       0       0       0       000010000D0000013
     126       0       0      35       0                               0D0000014
     126     173       0       0       0       0       0       000010000D0000015
     126       0       0      19       0                               0D0000016
     126     192       0       0       0       0       0       000010000D0000017
     126       0       0      11       0                               0D0000018
     126     203       0       0       0       0       0       000010000D0000019
     126       0       0       6       0                               0D0000020
     126     209       0       0       0       0       0       000010000D0000021
     126       0       0       3       0                               0D0000022
     126     212       0       0       0       0       0       000010000D0000023
     126       0       0       3       0                               0D0000024
     126     215       0       0       0       0       0       000010000D0000025
     126       0       0       6       0                               0D0000026
     126     221       0       0       0       0       0       000010000D0000027
     126       0       0       4       0                               0D0000028
     126     225       0       0       0       0       0       000010000D0000029
     126       0       0       4       0                               0D0000030
     126     229       0       0       0       0       0       000010000D0000031
     126       0       0       4       0                               0D0000032
     126     233       0       0       0       0       0       000010000D0000033
     126       0       0       4       0                               0D0000034
     126     237       0       0       0       0       0       000010000D0000035
     126       0       0       6       0                               0D0000036
     126     243       0       0       0       0       0       000010000D0000037
     126       0       0       2       0                               0D0000038
     126     245       0       0       0       0       0       000010000D0000039
     126       0       0       2       0                               0D0000040
     126     247       0       0       0       0       0       000010000D0000041
     126       0       0       2       0                               0D0000042
     126     249       0       0       0       0       0       000010000D0000043
     126       0       0       2       0                               0D0000044
     126     251       0       0       0       0       0       000010000D0000045
     126       0       0       2       0                               0D0000046
     126     253       0       0       0       0       0       000010000D0000047
     126       0       0       2       0                               0D0000048
     126     255       0       0       0       0       0       000010000D0000049
     126       0       0       2       0                               0D0000050
     126     257       0       0       0       0       0       000010000D0000051
     126       0       0       3       0                               0D0000052
     126     260       0       0       0       0       0       000010000D0000053
     126       0       0       2       0                               0D0000054
     126     262       0       0       0       0       0       000010000D0000055
     126       0       0       2       0                               0D0000056
     126     264       0       0       0       0       0       000010000D0000057
     126       0       0       2       0                               0D0000058
     126     266       0       0       0       0       0       000010000D0000059
     126       0       0       2       0                               0D0000060
     126     268       0       0       0       0       0       000010000D0000061
     126       0       0       2       0                               0D0000062
510,3,1,1,5;                                                     0000001P0000001
128,14,10,3,3,0,0,1,0,0,0.,0.,0.,0.,0.5,0.75,1.,1.0625,1.125,    0000003P0000002
1.25,1.375,1.5,1.625,1.75,1.875,2.,2.,2.,2.,0.,0.,0.,0.,0.125,   0000003P0000003
0.25,0.375,0.5,0.625,0.75,0.875,1.,1.,1.,1.,1.,1.,1.,1.,1.,1.,   0000003P0000004
1.,1.,1.,1.,1.,1.,1.,1.,1.,1.,1.,1.,1.,1.,1.,1.,1.,1.,1.,1.,1.,  0000003P0000005
1.,1.,1.,1.,1.,1.,1.,1.,1.,1.,1.,1.,1.,1.,1.,1.,1.,1.,1.,1.,1.,  0000003P0000006
1.,1.,1.,1.,1.,1.,1.,1.,1.,1.,1.,1.,1.,1.,1.,1.,1.,1.,1.,1.,1.,  0000003P0000007
1.,1.,1.,1.,1.,1.,1.,1.,1.,1.,1.,1.,1.,1.,1.,1.,1.,1.,1.,1.,1.,  0000003P0000008
1.,1.,1.,1.,1.,1.,1.,1.,1.,1.,1.,1.,1.,1.,1.,1.,1.,1.,1.,1.,1.,  0000003P0000009
1.,1.,1.,1.,1.,1.,1.,1.,1.,1.,1.,1.,1.,1.,1.,1.,1.,1.,1.,1.,1.,  0000003P0000010
1.,1.,1.,1.,1.,1.,1.,1.,1.,1.,1.,1.,1.,1.,1.,1.,1.,1.,1.,1.,1.,  0000003P0000011
1.,1.,1.,1.,1.,1.,1.,1.,1.,1.,1.,1.,6.,-7.347638123E-16,         0000003P0000012
0.183770005,5.597209997,-6.854378926E-16,0.113640004,            0000003P0000013
4.791629992,-5.867860533E-16,-2.661999688E-02,3.983559987,       0000003P0000014
-4.878292871E-16,-0.153179998,3.578289984,-4.38199665E-16,       0000003P0000015
-0.209629998,3.173009981,-3.885688184E-16,-0.266069998,          0000003P0000016
2.359959976,-2.890021981E-16,-0.365259999,1.168129968,           0000003P0000017
-1.430499381E-16,-0.4621,3.921996066E-02,-4.802901302E-18,       0000003P0000018
-0.49609,-1.061620047,1.300066654E-16,-0.47653,-2.169240054,     0000003P0000019
2.656465153E-16,-0.412729999,-3.216170061,3.938542291E-16,       0000003P0000020
-0.316399999,-4.134920067,5.063649386E-16,-0.199289998,          0000003P0000021
-4.57549007,5.603174211E-16,-0.117779997,-4.731170071,           0000003P0000022
5.79382093E-16,-7.876999722E-02,6.,7.393000049E-02,0.185870005,  0000003P0000023
5.595219997,8.054000053E-02,0.115560004,4.785659992,             0000003P0000024
9.376000062E-02,-2.506999687E-02,3.973589987,0.105560001,        0000003P0000025
-0.151689998,3.566299984,0.110750001,-0.207999998,3.159009981,   0000003P0000026
0.115940001,-0.264309998,2.341899976,0.124900001,-0.362909999,   0000003P0000027
1.144339968,0.133080001,-0.45894,1.049996047E-02,0.135040001,    0000003P0000028
-0.49325,-1.095440047,0.126370001,-0.47155,-2.209290054,         0000003P0000029
0.102700001,-0.399509999,-3.258770061,7.037000046E-02,           0000003P0000030
-0.293349999,-4.171580067,3.576000024E-02,-0.169289998,          0000003P0000031
-4.64842007,1.192000008E-02,-8.293999725E-02,-4.886840072,       0000003P0000032
5.984455402E-16,-3.975999696E-02,6.,0.221800001,0.190080005,     0000003P0000033
5.591239997,0.241630002,0.119390004,4.773729992,0.281290002,     0000003P0000034
-2.198999685E-02,3.953649986,0.316680002,-0.148709998,           0000003P0000035
3.542329984,0.332250002,-0.204749998,3.130999981,0.347820002,    0000003P0000036
-0.260779998,2.305789976,0.374690002,-0.358199999,1.096769968,   0000003P0000037
0.399250003,-0.45261,-4.694003991E-02,0.405120003,-0.48758,      0000003P0000038
-1.163080047,0.379110003,-0.46158,-2.289400055,0.308090002,      0000003P0000039
-0.373069999,-3.343980062,0.211110001,-0.247239998,-4.244890068, 0000003P0000040
0.107270001,-0.109279997,-4.794280071,3.576000024E-02,           0000003P0000041
-1.324999679E-02,-5.068980073,6.207505205E-16,3.476000353E-02,   0000003P0000042
6.,0.464710003,0.196620005,5.584909997,0.499070003,0.129930004,  0000003P0000043
4.754719992,0.567800004,-3.449996723E-03,3.922099986,            0000003P0000044
0.630360004,-0.123069998,3.504579984,0.658560004,-0.176009998,   0000003P0000045
3.087049981,0.686770005,-0.228949998,2.249549975,0.737010005,    0000003P0000046
-0.321079999,1.023439967,0.782570005,-0.409909999,-0.13510004,   0000003P0000047
0.787020005,-0.44123,-1.265800048,0.728690005,-0.405779999,      0000003P0000048
-2.408400055,0.585940004,-0.294289999,-3.470260063,0.397090003,  0000003P0000049
-0.143729998,-4.358740068,0.200480001,8.890003359E-03,           0000003P0000050
-4.893260072,6.683000044E-02,0.111330004,-5.160530074,           0000003P0000051
6.319617917E-16,0.162540004,6.,0.749830005,0.203610005,          0000003P0000052
5.577829997,0.788140005,0.150050004,4.733499992,0.864760006,     0000003P0000053
4.293000358E-02,3.887279986,0.938030006,-5.509999706E-02,        0000003P0000054
3.463239983,0.973000006,-9.956999736E-02,3.03918998,1.007970007, 0000003P0000055
-0.144029998,2.189209975,1.074580007,-0.223869998,0.946209967,   0000003P0000056
1.134000007,-0.300769999,-0.227250041,1.122490007,-0.319199999,  0000003P0000057
-1.371040049,1.019200007,-0.268309998,-2.525070056,0.803320005,  0000003P0000058
-0.137239998,-3.593460063,0.532800004,2.849000349E-02,           0000003P0000059
-4.480320069,0.265570002,0.183360005,-5.011060073,               0000003P0000060
8.852000058E-02,0.282980005,-5.276420074,6.461537549E-16,        0000003P0000061
0.332790005,6.,1.029400007,0.260570005,5.571049997,1.067410007,  0000003P0000062
0.222830005,4.713139992,1.143440008,0.147350004,3.853809986,     0000003P0000063
1.218300008,7.60100038E-02,3.423439983,1.255140008,              0000003P0000064
4.240000358E-02,2.99306998,1.291990009,8.790003358E-03,          0000003P0000065
2.130909974,1.364510009,-5.428999706E-02,0.871179966,            0000003P0000066
1.423890009,-0.113519997,-0.317310042,1.388000009,-0.114399997,  0000003P0000067
-1.473590049,1.240690008,-4.805999702E-02,-2.636700057,          0000003P0000068
0.965780006,9.434000392E-02,-3.713320064,0.633370004,            0000003P0000069
0.263580005,-4.61014007,0.313540002,0.410430006,-5.148080074,    0000003P0000070
0.104510001,0.500860007,-5.417060075,6.633766187E-16,            0000003P0000071
0.546080007,6.,1.255620008,0.417050006,5.565569997,1.295460009,  0000003P0000072
0.391390006,4.696719991,1.375130009,0.340060006,3.826309986,     0000003P0000073
1.44976001,0.291040005,3.390319983,1.48455001,0.267690005,       0000003P0000074
2.95432998,1.51935001,0.244340005,2.080799974,1.58390001,        0000003P0000075
0.199960005,0.804469966,1.622570011,0.163480004,-0.399220042,    0000003P0000076
1.56006001,0.180260004,-1.56824005,1.383200009,0.256070005,      0000003P0000077
-2.740550058,1.078860007,0.396730006,-3.829570065,0.713960005,   0000003P0000078
0.555680007,-4.748670071,0.355390002,0.686400008,-5.304770075,   0000003P0000079
0.118460001,0.764140008,-5.582830076,6.836769184E-16,            0000003P0000080
0.803010009,6.,1.420640009,0.649390008,5.561169997,1.46136001,   0000003P0000081
0.632810007,4.683499991,1.54279001,0.599650007,3.804069986,      0000003P0000082
1.614730011,0.568740007,3.363479983,1.645940011,0.554410007,     0000003P0000083
2.92287998,1.677160011,0.540070007,2.039929974,1.730080011,      0000003P0000084
0.513650007,0.749479965,1.745540012,0.499110007,-0.467700043,    0000003P0000085
1.661650011,0.528020007,-1.64830005,1.46774001,0.602710007,      0000003P0000086
-2.828980058,1.153120008,0.725490008,-3.931610066,0.774620005,   0000003P0000087
0.858950009,-4.878070072,0.389070003,0.96564001,-5.456980076,    0000003P0000088
0.129690001,1.02785001,-5.746430078,7.037114785E-16,1.05896001,  0000003P0000089
6.,1.51658001,0.933970009,5.557569997,1.55419001,0.924230009,    0000003P0000090
4.672709991,1.629410011,0.904760009,3.786389985,1.695520011,     0000003P0000091
0.887820009,3.342499982,1.724010011,0.880620009,2.89860998,      0000003P0000092
1.752500012,0.873420009,2.009359974,1.800370012,0.861560009,     0000003P0000093
0.709599965,1.808300012,0.862220009,-0.517510043,1.715800011,    0000003P0000094
0.892150009,-1.707120051,1.51527001,0.95046001,-2.894330059,     0000003P0000095
1.199080008,1.03622001,-4.008870066,0.815430005,1.127540011,     0000003P0000096
-4.980460072,0.412530003,1.202510011,-5.580540076,0.137510001,   0000003P0000097
1.247030012,-5.880580078,7.201395728E-16,1.269300012,6.,         0000003P0000098
1.55752001,1.141100011,5.555439997,1.591730011,1.135170011,      0000003P0000099
4.666329991,1.660140011,1.123330011,3.776129985,1.721310011,     0000003P0000100
1.114340011,3.330469982,1.748280012,1.111270011,2.884819979,     0000003P0000101
1.775240012,1.108200011,1.992409974,1.821930012,1.104910011,     0000003P0000102
0.688049965,1.830060012,1.113450011,-0.544500043,1.736090011,    0000003P0000103
1.140360011,-1.739250051,1.53463001,1.182660011,-2.930200059,    0000003P0000104
1.220300008,1.237360011,-4.052110066,0.836020006,1.295040012,    0000003P0000105
-5.039720073,0.424760003,1.346290012,-5.653370077,0.141590001,   0000003P0000106
1.378310012,-5.960190079,7.298886641E-16,1.394320013,6.,         0000003P0000107
1.57800001,1.244660012,5.554379997,1.610500011,1.240650011,      0000003P0000108
4.663139991,1.675510011,1.232620011,3.770989985,1.734210011,     0000003P0000109
1.227600011,3.324459982,1.760410012,1.226590011,2.877919979,     0000003P0000110
1.786620012,1.225590011,1.983939973,1.832720012,1.226590011,     0000003P0000111
0.677279965,1.840950012,1.239060011,-0.557990043,1.746230012,    0000003P0000112
1.264470012,-1.755310051,1.54431001,1.298770012,-2.948130059,    0000003P0000113
1.230900008,1.337930012,-4.073730066,0.846320006,1.378790012,    0000003P0000114
-5.069350073,0.430870003,1.418180013,-5.689790077,0.143620001,   0000003P0000115
1.443950013,-6.000000079,7.34763822E-16,1.456830013,0.,2.,0.,1.; 0000003P0000116
508,13,0,7,1,1,1,0,37,0,7,2,1,1,0,39,0,7,3,1,1,0,41,0,7,4,1,1,0, 0000005P0000117
43,0,7,5,1,1,0,45,0,7,6,1,1,0,47,0,7,7,1,1,0,49,0,7,8,1,1,0,51,  0000005P0000118
0,7,9,1,1,0,53,0,7,10,1,1,0,55,0,7,11,1,1,0,57,0,7,12,1,1,0,59,  0000005P0000119
0,7,13,1,1,0,61;                                                 0000005P0000120
504,13,9,11,1,11,2,13,11,2,11,3,15,11,3,11,4,17,11,4,11,5,19,11, 0000007P0000121
5,11,6,21,11,6,11,7,23,11,7,11,8,25,11,8,11,9,27,11,9,11,10,29,  0000007P0000122
11,10,11,11,31,11,11,11,12,33,11,12,11,13,35,11,13,11,1;         0000007P0000123
126,3,3,1,0,1,0,0.926002552,0.926002552,0.926002552,0.926002552, 0000009P0000124
1.,1.,1.,1.,1.,1.,1.,1.,3.57828346,-4.723492315E-16,             0000009P0000125
-0.209583393,3.514115525,-4.644911854E-16,-0.218565838,          0000009P0000126
3.445787382,-4.561380862E-16,-0.228081989,3.371146649,           0000009P0000127
-4.469975347E-16,-0.238476887,0.926002552,1.,-1.255500775E-16,   0000009P0000128
-1.,2.290701525E-17;                                             0000009P0000129
502,13,3.578289984,-4.38199665E-16,-0.209629998,3.371146649,     0000011P0000130
-4.469975347E-16,-0.238476887,-4.731170071,5.793612506E-16,      0000011P0000131
-7.876999722E-02,-6.000000079,7.689119221E-16,1.456830013,       0000011P0000132
3.096228203,1.773806456,1.226079123,6.,1.57800001,1.244660012,   0000011P0000133
6.,1.51083001,0.938320009,6.,1.409120009,0.658100008,6.,         0000011P0000134
1.020510007,0.277160005,6.,0.748910005,0.211940005,6.,           0000011P0000135
0.471740003,0.196690005,6.,0.225320001,0.190120005,6.,           0000011P0000136
-7.347638123E-16,0.183770005;                                    0000011P0000137
126,37,13,1,0,1,0,1.,1.,1.,1.,1.,1.,1.,1.,1.,1.,1.,1.,1.,1.,     0000013P0000138
1.25,1.25,1.25,1.25,1.25,1.25,1.25,1.25,1.25,1.25,1.25,1.25,1.5, 0000013P0000139
1.5,1.5,1.5,1.5,1.5,1.5,1.5,1.5,1.5,1.5,1.5,2.,2.,2.,2.,2.,2.,   0000013P0000140
2.,2.,2.,2.,2.,2.,2.,2.,1.,1.,1.,1.,1.,1.,1.,1.,1.,1.,1.,1.,1.,  0000013P0000141
1.,1.,1.,1.,1.,1.,1.,1.,1.,1.,1.,1.,1.,1.,1.,1.,1.,1.,1.,1.,1.,  0000013P0000142
1.,1.,1.,1.,3.371146649,-4.469975347E-16,-0.238476887,           0000013P0000143
3.312952803,-4.398710792E-16,-0.246581297,3.256907275,           0000013P0000144
-5.232779587E-16,-0.254510014,3.141536191,2.569487244E-16,       0000013P0000145
-0.269277845,3.158056026,-2.926050931E-15,-0.268893569,          0000013P0000146
2.795516219,5.388996181E-15,-0.31102202,2.695854891,             0000013P0000147
-9.112260623E-15,-0.327057949,2.429089825,8.416265924E-15,       0000013P0000148
-0.357895869,2.279406683,-5.960668436E-15,-0.364030654,          0000013P0000149
2.027561443,2.176592915E-15,-0.394413414,1.833448202,            0000013P0000150
-8.552290003E-16,-0.406262891,1.619203539,-1.221578718E-16,      0000013P0000151
-0.423381932,1.415198611,-1.733227949E-16,-0.436843307,          0000013P0000152
1.021489993,-1.251089874E-16,-0.459950692,0.832080486,           0000013P0000153
-9.102310535E-17,-0.469419009,0.649555157,-6.885494982E-17,      0000013P0000154
-0.476877687,0.472483949,-5.820810963E-17,-0.482473074,          0000013P0000155
0.299125997,-4.927786749E-17,-0.486376754,0.127848598,           0000013P0000156
-3.220617797E-17,-0.488751531,-4.259348029E-02,-2.906813001E-18, 0000013P0000157
-0.489728741,-0.212918339,3.463932461E-17,-0.48939691,           0000013P0000158
-0.383316954,6.961872007E-17,-0.487801757,-0.553592825,          0000013P0000159
8.91495976E-17,-0.484957531,-0.723441293,8.657610369E-17,        0000013P0000160
-0.480869701,-0.892868507,7.329232256E-17,-0.475568974,          0000013P0000161
-1.402513126,1.357037264E-16,-0.456332051,-1.743557017,          0000013P0000162
1.767532361E-16,-0.438934113,-2.081876906,2.263703228E-16,       0000013P0000163
-0.417490916,-2.41528285,2.834241454E-16,-0.392418853,           0000013P0000164
-2.74223351,3.419581458E-16,-0.364094818,-3.060961446,           0000013P0000165
3.952932956E-16,-0.33291031,-3.368889979,4.388037956E-16,        0000013P0000166
-0.29930745,-3.662341628,4.713652301E-16,-0.263796936,           0000013P0000167
-3.936538105,4.954751733E-16,-0.226957912,-4.185891885,          0000013P0000168
5.1604625E-16,-0.189419771,-4.404589342,5.378716494E-16,         0000013P0000169
-0.151825881,-4.587465454,5.61763092E-16,-0.114779228,           0000013P0000170
-4.731170071,5.793612506E-16,-7.876999722E-02,1.,2.,             0000013P0000171
1.178967912E-16,1.,2.885598592E-16;                              0000013P0000172
126,19,10,1,0,1,0,2.,2.,2.,2.,2.,2.,2.,2.,2.,2.,2.,2.5,2.5,2.5,  0000015P0000173
2.5,2.5,2.5,2.5,2.5,2.5,3.,3.,3.,3.,3.,3.,3.,3.,3.,3.,3.,1.,1.,  0000015P0000174
1.,1.,1.,1.,1.,1.,1.,1.,1.,1.,1.,1.,1.,1.,1.,1.,1.,1.,           0000015P0000175
-4.731170071,5.793612506E-16,-7.876999722E-02,-4.917974072,      0000015P0000176
6.047984948E-16,-3.195799691E-02,-5.038654343,6.792371744E-16,   0000015P0000177
1.333873765E-02,-5.086214597,2.487649263E-16,5.628219538E-02,    0000015P0000178
-5.187546308,1.680647681E-15,0.112926061,-5.077390962,           0000015P0000179
-1.11476644E-15,0.149877277,-5.252181012,2.274601145E-15,        0000015P0000180
0.229730333,-5.233809175,3.488365353E-17,0.29230922,             0000015P0000181
-5.305936887,8.305506201E-16,0.373373637,-5.359966408,           0000015P0000182
6.59799702E-16,0.45930934,-5.482530409,6.679793474E-16,          0000015P0000183
0.647397341,-5.548874357,7.253631376E-16,0.750154811,            0000015P0000184
-5.61429979,9.763952348E-16,0.851947658,-5.684607126,            0000015P0000185
7.783746915E-16,0.962034484,-5.750520889,5.952628978E-16,        0000015P0000186
1.065438802,-5.804825032,7.586248672E-16,1.150491608,            0000015P0000187
-5.853617074,8.131064109E-16,1.226920368,-5.905056107,           0000015P0000188
5.050006686E-16,1.307761461,-5.952228079,8.176986929E-16,        0000015P0000189
1.381818012,-6.000000079,8.030600223E-16,1.456830013,2.,3.,      0000015P0000190
1.448409115E-16,1.,1.006424015E-16;                              0000015P0000191
126,11,3,0,0,1,0,-1.,-1.,-1.,-1.,-0.875,-0.75,-0.625,-0.5,       0000017P0000192
-0.375,-0.25,-0.125,-6.25E-02,0.,0.,0.,0.,1.,1.,1.,1.,1.,1.,1.,  0000017P0000193
1.,1.,1.,1.,1.,-6.000000079,7.34763822E-16,1.456830013,          0000017P0000194
-5.689790077,0.143620001,1.443950013,-5.069350073,0.430870003,   0000017P0000195
1.418180013,-4.073730066,0.846320006,1.378790012,-2.948130059,   0000017P0000196
1.230900008,1.337930012,-1.755310051,1.54431001,1.298770012,     0000017P0000197
-0.557990043,1.746230012,1.264470012,0.677279965,1.840950012,    0000017P0000198
1.239060011,1.983939973,1.832720012,1.226590011,2.877919979,     0000017P0000199
1.786620012,1.225590011,3.026766647,1.777883345,1.225923345,     0000017P0000200
3.096228203,1.773806456,1.226079123,-1.,0.,1.225949816E-02,      0000017P0000201
7.507482786E-02,0.99710254;                                      0000017P0000202
126,5,3,0,0,1,0,0.,0.,0.,0.,0.25,0.5,1.,1.,1.,1.,1.,1.,1.,1.,1., 0000019P0000203
1.,3.096228203,1.773806456,1.226079123,3.374074427,1.7574989,    0000019P0000204
1.226702234,3.770989985,1.734210011,1.227600011,4.663139991,     0000019P0000205
1.675510011,1.232620011,5.554379997,1.610500011,1.240650011,6.,  0000019P0000206
1.57800001,1.244660012,0.,1.,2.306777374E-02,0.427860798,        0000019P0000207
0.903550229;                                                     0000019P0000208
126,3,3,1,0,1,0,-1.,-1.,-1.,-1.,-0.,-0.,-0.,-0.,1.,1.,1.,1.,6.,  0000021P0000209
1.57800001,1.244660012,6.,1.55752001,1.141100011,6.,1.53705001,  0000021P0000210
1.03753001,6.,1.51083001,0.938320009,-1.,-0.,-1.,0.,0.;          0000021P0000211
126,3,3,1,0,1,0,-1.,-1.,-1.,-1.,-0.,-0.,-0.,-0.,1.,1.,1.,1.,6.,  0000023P0000212
1.51083001,0.938320009,6.,1.48460001,0.839110009,6.,1.45262001,  0000023P0000213
0.744250008,6.,1.409120009,0.658100008,-1.,-0.,-1.,0.,0.;        0000023P0000214
126,4,3,1,0,1,0,-0.749999988,-0.749999988,-0.749999988,          0000025P0000215
-0.749999988,-0.625,-0.500001289,-0.500001289,-0.500001289,      0000025P0000216
-0.500001289,1.,1.,1.,1.,1.,6.,1.409120009,0.658100008,6.,       0000025P0000217
1.365627637,0.571946495,6.,1.255616836,0.417053583,6.,           0000025P0000218
1.104806394,0.31273349,6.,1.020510007,0.277160005,-0.749999988,  0000025P0000219
-0.500001289,-1.,-5.367588767E-15,0.;                            0000025P0000220
126,3,3,1,0,1,0,-0.,-0.,-0.,-0.,1.,1.,1.,1.,1.,1.,1.,1.,6.,      0000027P0000221
1.020510007,0.277160005,6.,0.936210006,0.241590005,6.,           0000027P0000222
0.843020006,0.222600005,6.,0.748910005,0.211940005,-0.,1.,-1.,   0000027P0000223
0.,0.;                                                           0000027P0000224
126,3,3,1,0,1,0,-1.,-1.,-1.,-1.,0.,0.,0.,0.,1.,1.,1.,1.,6.,      0000029P0000225
0.748910005,0.211940005,6.,0.654790004,0.201280005,6.,           0000029P0000226
0.559750004,0.198950005,6.,0.471740003,0.196690005,-1.,0.,-1.,   0000029P0000227
0.,0.;                                                           0000029P0000228
126,3,3,1,0,1,0,0.,0.,0.,0.,1.,1.,1.,1.,1.,1.,1.,1.,6.,          0000031P0000229
0.471740003,0.196690005,6.,0.383740003,0.194440005,6.,           0000031P0000230
0.302770002,0.192260005,6.,0.225320001,0.190120005,0.,1.,1.,0.,  0000031P0000231
0.;                                                              0000031P0000232
126,3,3,1,0,1,0,0.,0.,0.,0.,1.,1.,1.,1.,1.,1.,1.,1.,6.,          0000033P0000233
0.225320001,0.190120005,6.,0.147870001,0.187980005,6.,           0000033P0000234
7.393000049E-02,0.185870005,6.,-7.347638123E-16,0.183770005,0.,  0000033P0000235
1.,1.,0.,6.234125881E-12;                                        0000033P0000236
126,4,3,1,0,1,0,-1.,-1.,-1.,-1.,-0.5,-0.,-0.,-0.,-0.,1.,1.,1.,   0000035P0000237
1.,1.,6.,-7.347638123E-16,0.183770005,5.597209997,               0000035P0000238
-6.854378926E-16,0.113640004,4.791629992,-5.867860533E-16,       0000035P0000239
-2.661999688E-02,3.983559987,-4.878292871E-16,-0.153179998,      0000035P0000240
3.578289984,-4.38199665E-16,-0.209629998,-1.,-0.,                0000035P0000241
1.224606354E-16,1.,9.908762052E-30;                              0000035P0000242
126,1,1,1,0,1,0,0.926002552,0.926002552,1.,1.,1.,1.,0.926002552, 0000037P0000243
0.,0.,1.,0.,0.,0.926002552,1.,0.,0.,1.;                          0000037P0000244
126,1,1,1,0,1,0,1.,1.,2.,2.,1.,1.,1.,0.,0.,2.,0.,0.,1.,2.,0.,0., 0000039P0000245
1.;                                                              0000039P0000246
126,1,1,1,0,1,0,2.,2.,3.,3.,1.,1.,2.,0.,0.,2.,1.,0.,2.,3.,0.,0., 0000041P0000247
1.;                                                              0000041P0000248
126,1,1,1,0,1,0,-1.,-1.,0.,0.,1.,1.,2.,1.,0.,1.,1.,0.,-1.,0.,0., 0000043P0000249
0.,1.;                                                           0000043P0000250
126,1,1,1,0,1,0,0.,0.,1.,1.,1.,1.,1.,1.,0.,0.,1.,0.,0.,1.,0.,0., 0000045P0000251
1.;                                                              0000045P0000252
126,1,1,1,0,1,0,-1.,-1.,0.,0.,1.,1.,0.,1.,0.,0.,0.874999537,0.,  0000047P0000253
-1.,0.,0.,0.,1.;                                                 0000047P0000254
126,1,1,1,0,1,0,-1.,-1.,0.,0.,1.,1.,0.,0.874999537,0.,0.,        0000049P0000255
0.749999988,0.,-1.,0.,0.,0.,1.;                                  0000049P0000256
126,1,1,1,0,1,0,-0.749999988,-0.749999988,-0.500001289,          0000051P0000257
-0.500001289,1.,1.,0.,0.749999988,0.,0.,0.500001289,0.,          0000051P0000258
-0.749999988,-0.500001289,0.,0.,1.;                              0000051P0000259
126,1,1,1,0,1,0,-0.,-0.,1.,1.,1.,1.,0.,0.500001289,0.,0.,        0000053P0000260
0.375002268,0.,-0.,1.,0.,0.,1.;                                  0000053P0000261
126,1,1,1,0,1,0,-1.,-1.,0.,0.,1.,1.,0.,0.375002268,0.,0.,        0000055P0000262
0.249997574,0.,-1.,0.,0.,0.,1.;                                  0000055P0000263
126,1,1,1,0,1,0,0.,0.,1.,1.,1.,1.,0.,0.249997574,0.,0.,          0000057P0000264
0.125001381,0.,0.,1.,0.,0.,1.;                                   0000057P0000265
126,1,1,1,0,1,0,0.,0.,1.,1.,1.,1.,0.,0.125001381,0.,0.,0.,0.,0., 0000059P0000266
1.,0.,0.,1.;                                                     0000059P0000267
126,1,1,1,0,1,0,-1.,-1.,0.,0.,1.,1.,0.,0.,0.,0.926002552,0.,0.,  0000061P0000268
-1.,0.,0.,0.,1.;                                                 0000061P0000269
S      1G      4D     62P    269                                        T0000001
